<svg width="64" height="64" viewBox="0 0 64 64" fill="none" xmlns="http://www.w3.org/2000/svg">
<path fill-rule="evenodd" clip-rule="evenodd" d="M12.6668 47.3332V37.3332C12.6668 34.7572 14.7575 32.6665 17.3335 32.6665H46.6668C49.2428 32.6665 51.3335 34.7572 51.3335 37.3332V47.3332H54.6668C56.2588 47.3332 57.7842 46.7012 58.9095 45.5758C60.0348 44.4505 60.6668 42.9252 60.6668 41.3332C60.6668 36.2985 60.6668 27.7012 60.6668 22.6665C60.6668 21.0745 60.0348 19.5492 58.9095 18.4238C57.7842 17.2985 56.2588 16.6665 54.6668 16.6665H9.3335C7.7415 16.6665 6.21616 17.2985 5.09083 18.4238C3.9655 19.5492 3.3335 21.0745 3.3335 22.6665V41.3332C3.3335 42.9252 3.9655 44.4505 5.09083 45.5758C6.21616 46.7012 7.7415 47.3332 9.3335 47.3332H12.6668ZM16.6668 47.3332H47.3335V37.3332C47.3335 36.9652 47.0348 36.6665 46.6668 36.6665H17.3335C16.9655 36.6665 16.6668 36.9652 16.6668 37.3332V47.3332ZM49.3335 21.9998H44.0002C42.8962 21.9998 42.0002 22.8958 42.0002 23.9998C42.0002 25.1038 42.8962 25.9998 44.0002 25.9998H49.3335C50.4375 25.9998 51.3335 25.1038 51.3335 23.9998C51.3335 22.8958 50.4375 21.9998 49.3335 21.9998Z" fill="#ED3636"/>
</svg>
