<svg width="64" height="64" viewBox="0 0 64 64" fill="none" xmlns="http://www.w3.org/2000/svg">
<path d="M56.6553 40.4099C53.7747 37.5271 49.7776 36.3058 44.6443 37.6816L26.3396 19.3583L26.5815 18.4434C27.6358 14.4878 26.4966 10.2359 23.6096 7.34881C20.67 4.40696 16.491 3.32754 12.5388 4.41319C11.9752 4.56796 11.5365 5.01081 11.3872 5.57595C11.2379 6.14109 11.4016 6.74178 11.8147 7.1551L16.2222 11.5626C17.5107 12.8543 17.4982 14.923 16.2254 16.1992C14.9626 17.4653 12.8401 17.4633 11.5824 16.2024L7.17407 11.7937C6.76074 11.3801 6.15831 11.2179 5.59317 11.3681C5.02792 11.5182 4.5867 11.958 4.43248 12.5221C3.36269 16.4309 4.41509 20.6359 7.36875 23.5895C10.2482 26.471 14.2402 27.6966 19.3766 26.318L37.6827 44.6413C36.3166 49.773 37.495 53.7314 40.4143 56.6507C43.3576 59.5962 47.5386 60.6676 51.4822 59.5856C52.0459 59.4309 52.4847 58.988 52.6341 58.4228C52.7835 57.8577 52.6199 57.2569 52.2066 56.8435L47.8001 52.437C46.5115 51.1453 46.5241 49.0763 47.7969 47.8004C49.0754 46.5284 51.1932 46.5487 52.4399 47.7987L56.8485 52.2062C57.2619 52.6195 57.8643 52.7817 58.4293 52.6315C58.9945 52.4814 59.4357 52.0418 59.5899 51.4778C60.6597 47.5696 59.6075 43.3636 56.6553 40.4099Z" fill="#ED3636"/>
<path d="M21.5593 33.1577L5.91961 48.7994C3.36013 51.3589 3.36013 55.521 5.91961 58.0804C8.47908 60.6398 12.6412 60.6398 15.2006 58.0804L30.84 42.4391L21.5593 33.1577ZM13.6593 52.9889C13.0183 53.6298 11.9804 53.6298 11.3394 52.9889C10.6986 52.348 10.6986 51.3099 11.3394 50.669L21.2904 40.7163C21.9312 40.0754 22.9695 40.0754 23.6102 40.7163C24.251 41.3571 24.251 42.3953 23.6102 43.0361L13.6593 52.9889Z" fill="#ED3636"/>
<path d="M59.5174 7.30893L56.6891 4.48061C56.1568 3.94828 55.3307 3.84656 54.6851 4.23364L45.9847 9.45333C45.0692 10.0025 44.9138 11.2654 45.6685 12.0202L46.3611 12.7126L35.3164 23.7121L39.9577 28.3534L51.0024 17.3539L51.9779 18.3296C52.7327 19.0842 53.9957 18.9289 54.5448 18.0134L59.7645 9.313C60.1514 8.66736 60.0497 7.84125 59.5174 7.30893Z" fill="#ED3636"/>
</svg>
