<svg width="64" height="64" viewBox="0 0 64 64" fill="none" xmlns="http://www.w3.org/2000/svg">
<g clip-path="url(#clip0_70_652)">
<path d="M42.2377 44.8527L45.1644 40.1037L50.4459 38.3025L51.031 32.7554L55.0046 28.8435L53.1154 23.5928L55.0046 18.3419L51.0311 14.43L50.446 8.883L45.1645 7.08175L42.2379 2.33262L36.7022 3.001L31.9999 0L27.2975 3.00125L21.762 2.33288L18.8354 7.08187L13.5539 8.88313L12.9687 14.4301L8.99512 18.342L10.8844 23.5929L8.99512 28.8438L12.9686 32.7555L13.5537 38.3026L18.8352 40.1039L21.7619 44.8529L27.2975 44.1846L31.9999 47.1857L36.7022 44.1846L42.2377 44.8527ZM15.8212 23.5929C15.8212 14.672 23.079 7.41425 31.9999 7.41425C40.9207 7.41425 48.1785 14.672 48.1785 23.5929C48.1785 32.5137 40.9207 39.7715 31.9999 39.7715C23.079 39.7715 15.8212 32.5137 15.8212 23.5929Z" fill="#ED3636"/>
<path d="M32 11.1665C25.1481 11.1665 19.5737 16.7409 19.5737 23.5928C19.5737 30.4446 25.1481 36.019 32 36.019C38.8519 36.019 44.4262 30.4446 44.4262 23.5928C44.4262 16.7409 38.8519 11.1665 32 11.1665Z" fill="#ED3636"/>
<path d="M26.4125 48.071L19.8275 48.866L16.3483 43.2201L15.1656 42.8169L10.064 58.7626L19.2483 58.2575L26.434 64L30.6625 50.7835L26.4125 48.071Z" fill="#ED3636"/>
<path d="M47.6515 43.2203L44.1723 48.866L37.5874 48.071L33.3374 50.7835L37.5659 64L44.7515 58.2575L53.9359 58.7626L48.8343 42.8169L47.6515 43.2203Z" fill="#ED3636"/>
</g>
<defs>
<clipPath id="clip0_70_652">
<rect width="64" height="64" fill="white"/>
</clipPath>
</defs>
</svg>
