<svg width="64" height="64" viewBox="0 0 64 64" fill="none" xmlns="http://www.w3.org/2000/svg">
<g clip-path="url(#clip0_70_661)">
<path d="M31.9995 19.8071C25.2754 19.8071 19.8052 25.2773 19.8052 32.0009C19.8052 38.725 25.2754 44.1952 31.9995 44.1952C38.7231 44.1952 44.1933 38.725 44.1933 32.0009C44.1933 25.2773 38.7231 19.8071 31.9995 19.8071ZM39.2392 29.7046L30.5034 38.4404C30.1367 38.8071 29.6557 38.9907 29.1753 38.9907C28.6948 38.9907 28.2143 38.8076 27.8476 38.4404L24.5093 35.102C23.7759 34.3691 23.7759 33.1801 24.5093 32.4467C25.2422 31.7133 26.4311 31.7133 27.1645 32.4467L29.1753 34.4575L36.5839 27.0493C37.3168 26.3159 38.5058 26.3159 39.2392 27.0493C39.9726 27.7822 39.9726 28.9712 39.2392 29.7046Z" fill="#ED3636"/>
<path d="M59.1859 17.3648L59.1839 17.315C59.1561 16.7003 59.1375 16.0499 59.1263 15.3263C59.074 11.7975 56.2689 8.87852 52.7396 8.68125C45.3812 8.27061 39.6888 5.8712 34.8251 1.13049L34.7836 1.09094C33.1972 -0.363646 30.8041 -0.363646 29.2172 1.09094L29.1757 1.13049C24.3119 5.8712 18.6196 8.27061 11.2612 8.68174C7.73239 8.87852 4.92673 11.7975 4.87449 15.3267C4.86375 16.0455 4.8447 16.6959 4.81687 17.315L4.81394 17.4307C4.67088 24.9341 4.49314 34.2725 7.61716 42.7485C9.33493 47.4097 11.9365 51.4614 15.3491 54.792C19.2358 58.5849 24.3266 61.5961 30.4799 63.7416C30.6801 63.8115 30.8881 63.8681 31.1 63.9106C31.3988 63.9702 31.6996 63.9999 32.0004 63.9999C32.3012 63.9999 32.6024 63.9702 32.9008 63.9106C33.1127 63.8681 33.3222 63.811 33.5233 63.7407C39.6693 61.5913 44.7547 58.5786 48.638 54.7861C52.0492 51.4546 54.6507 47.4018 56.3699 42.7397C59.5057 34.2383 59.3284 24.8824 59.1859 17.3648ZM31.9994 47.9507C23.2045 47.9507 16.0498 40.7959 16.0498 32.001C16.0498 23.2061 23.2045 16.0513 31.9994 16.0513C40.7938 16.0513 47.9491 23.2061 47.9491 32.001C47.9491 40.7959 40.7938 47.9507 31.9994 47.9507Z" fill="#ED3636"/>
</g>
<defs>
<clipPath id="clip0_70_661">
<rect width="64" height="64" fill="white"/>
</clipPath>
</defs>
</svg>
