<svg width="64" height="64" viewBox="0 0 64 64" fill="none" xmlns="http://www.w3.org/2000/svg">
<path fill-rule="evenodd" clip-rule="evenodd" d="M32.7283 8.62661C28.18 8.47515 23.5848 9.71603 19.6175 12.3642C15.1617 15.3416 12.0478 19.7384 10.6134 24.6536C10.2174 24.6053 9.74304 24.6266 9.17984 24.7859C7.07709 25.3825 5.49558 27.1055 4.78447 28.6231C3.86216 30.6007 3.47318 33.2161 3.88349 35.9162C4.29096 38.6078 5.42802 40.8264 6.85024 42.2039C8.27673 43.582 9.8874 44.03 11.4874 43.6936C13.8696 43.1852 15.0508 42.8047 14.7173 40.5854L13.1023 29.827C13.428 24.0044 16.4424 18.5231 21.4842 15.1525C28.2326 10.6447 37.0803 10.9335 43.5173 15.875C47.9951 19.3082 50.595 24.4524 50.895 29.8526L49.7658 37.3783C47.247 44.2711 41.0028 49.0455 33.7772 49.7231H28.9658C27.7242 49.7231 26.7244 50.723 26.7244 51.9632V53.145C26.7244 54.3859 27.7242 55.3857 28.9658 55.3857H35.0323C36.2732 55.3857 37.2687 54.3859 37.2687 53.145V52.5271C42.7173 51.1973 47.4732 47.8487 50.5701 43.1788L52.5135 43.6943C54.095 44.1047 55.7249 43.582 57.1507 42.2046C58.5729 40.8264 59.7093 38.6085 60.1174 35.9169C60.5292 33.2168 60.1288 30.6056 59.2172 28.6238C58.302 26.6419 56.9388 25.3832 55.3651 24.9317C54.7059 24.7418 53.9905 24.6721 53.3768 24.6536C52.0798 20.2092 49.4095 16.1672 45.561 13.2161C41.7772 10.3127 37.2766 8.77595 32.7283 8.62661Z" fill="#ED3636"/>
<path fill-rule="evenodd" clip-rule="evenodd" d="M39.8289 27.9817C41.4324 27.9817 42.7323 29.2816 42.7359 30.8894C42.7323 32.493 41.4324 33.7965 39.8289 33.7965C38.221 33.7965 36.9176 32.493 36.9176 30.8894C36.9176 29.2823 38.2217 27.9817 39.8289 27.9817ZM31.9995 27.9817C33.6066 27.9817 34.9065 29.2816 34.9065 30.8894C34.9065 32.493 33.6066 33.7965 31.9995 33.7965C30.391 33.7965 29.0911 32.493 29.0911 30.8894C29.0911 29.2823 30.391 27.9817 31.9995 27.9817ZM24.173 27.9817C25.7766 27.9817 27.08 29.2816 27.08 30.8894C27.08 32.493 25.7766 33.7965 24.173 33.7965C22.5659 33.7965 21.2653 32.493 21.2653 30.8894C21.2653 29.2823 22.5659 27.9817 24.173 27.9817ZM31.9995 15.4932C23.4733 15.4932 16.6025 22.1378 16.6025 30.8894C16.6025 35.0928 18.1919 38.8076 20.781 41.5333L19.8623 45.6521C19.5593 47.0075 20.4994 47.9191 21.7176 47.2407L25.7396 44.9972C27.6511 45.827 29.7652 46.2857 31.9995 46.2857C40.5286 46.2857 47.3951 39.6453 47.3951 30.8894C47.3951 22.1378 40.5286 15.4932 31.9995 15.4932Z" fill="#ED3636"/>
</svg>
