<svg width="1252" height="300" viewBox="0 0 1252 300" fill="none" xmlns="http://www.w3.org/2000/svg">
<g opacity="0.24">
<path d="M85.8281 94.8271L71.5479 128.626L63.422 147.929L49.1684 181.737L39.2398 205.233H2.52686L12.4289 181.737L26.6825 147.929L44.4617 105.786L49.0885 94.8271H85.8281Z" fill="white"/>
<path d="M207.165 205.233H170.426L160.515 181.737L146.27 147.929L138.109 128.626L123.864 94.8271H160.604L174.884 128.626L183.01 147.929L197.255 181.737L207.165 205.233Z" fill="white"/>
<path d="M174.884 128.626H44.4619V105.786L49.0887 94.8271H160.604L174.884 128.626Z" fill="white"/>
<path d="M197.255 181.738H12.4292L26.6828 147.929H183.01L197.255 181.738Z" fill="white"/>
<path d="M889.925 94.8271L875.653 128.626L867.527 147.929L853.274 181.737L843.345 205.233H806.632L816.534 181.737L830.788 147.929L848.558 105.786L853.185 94.8271H889.925Z" fill="white"/>
<path d="M1011.26 205.233H974.523L964.621 181.737L950.367 147.929L942.215 128.626L927.97 94.8271H964.71L978.981 128.626L987.107 147.929L1001.36 181.737L1011.26 205.233Z" fill="white"/>
<path d="M978.981 128.626H848.559V105.786L853.185 94.8271H964.71L978.981 128.626Z" fill="white"/>
<path d="M1001.36 181.738H816.535L830.789 147.929H987.107L1001.36 181.738Z" fill="white"/>
<path d="M596.701 94.8242H562.84V205.225H596.701V94.8242Z" fill="white"/>
<path d="M1060.1 94.8242H1026.24V205.225H1060.1V94.8242Z" fill="white"/>
<path d="M258.295 94.8242H224.435V205.225H258.295V94.8242Z" fill="white"/>
<path d="M355.491 171.417H224.435V205.224H355.491V171.417Z" fill="white"/>
<path d="M657.685 94.9601V205.233H623.823V94.8271H657.49L657.685 94.9601Z" fill="white"/>
<path d="M788.728 94.8271V205.233H755.07L754.866 205.091V94.8271H788.728Z" fill="white"/>
<path d="M788.729 187.624V205.233H755.071L754.867 205.091L657.685 136.376L623.823 112.463V94.8271H657.49L657.685 94.9601L754.867 163.676L788.729 187.624Z" fill="white"/>
<path d="M411.507 97.1238H377.646V205.225H411.507V97.1238Z" fill="white"/>
<path d="M511.196 94.844H377.617V181.664H511.196C518.516 181.645 525.531 178.734 530.706 173.566C535.882 168.398 538.799 161.395 538.818 154.086V122.569C538.829 115.238 535.927 108.202 530.749 103.004C525.571 97.8062 518.539 94.8716 511.196 94.844ZM505.058 147.958H411.523V128.697H505.058V147.958Z" fill="white"/>
<path d="M1121.77 97.1252H1087.91V205.225H1121.77V97.1252Z" fill="white"/>
<path d="M1221.32 94.844H1087.89V181.664H1221.32C1225.66 181.708 1229.93 180.653 1233.75 178.599C1238.35 176.364 1242.23 172.88 1244.95 168.544C1247.66 164.209 1249.1 159.199 1249.09 154.087V122.569C1249.09 118.928 1248.38 115.322 1246.98 111.957C1245.59 108.593 1243.54 105.536 1240.96 102.961C1238.39 100.386 1235.32 98.3442 1231.95 96.9515C1228.58 95.5587 1224.97 94.8425 1221.32 94.844ZM1121.8 128.697H1215.19V147.958H1121.8V128.697Z" fill="white"/>
<path d="M1220.87 156.361L1249.11 205.216H1210L1191.51 173.27L1220.87 156.361Z" fill="white"/>
</g>
</svg>
