<svg width="40" height="40" viewBox="0 0 40 40" fill="none" xmlns="http://www.w3.org/2000/svg">
<path d="M20.215 2.14282C10.2333 2.14282 2.14258 10.2336 2.14258 20.2152C2.14258 30.1969 10.2333 38.2876 20.215 38.2876C30.1966 38.2876 38.2874 30.1969 38.2874 20.2152C38.2874 10.2336 30.1966 2.14282 20.215 2.14282ZM20.215 35.5578C11.741 35.5578 4.87235 28.6892 4.87235 20.2152C4.87235 11.7412 11.741 4.87259 20.215 4.87259C28.689 4.87259 35.5576 11.7412 35.5576 20.2152C35.5574 28.6891 28.6888 35.5578 20.215 35.5578Z" fill="#F2F2F2"/>
<path d="M20 0C8.95379 0 0 8.95379 0 20C0 31.0462 8.95379 40 20 40C31.0462 40 40 31.0462 40 20C40 8.95379 31.0462 0 20 0ZM20 39.0922C9.45502 39.0922 0.907853 30.5448 0.907853 20C0.907853 9.45502 9.45519 0.907853 20 0.907853C30.5448 0.907853 39.0921 9.45519 39.0921 20C39.0921 30.5448 30.5448 39.0922 20 39.0922Z" fill="#F2F2F2"/>
<g clip-path="url(#clip0_236_2421)">
<path d="M13.135 20.7736H24.5652C26.2224 20.7736 27.5705 19.4254 27.5705 17.7683C27.5705 16.1137 26.2262 14.767 24.5724 14.7631C24.4095 14.7606 23.3515 14.7753 22.5616 15.5455C22.0323 16.0615 21.764 16.7705 21.764 17.6528C21.764 18.0423 22.0798 18.3581 22.4694 18.3581C22.859 18.3581 23.1747 18.0423 23.1747 17.6528C23.1747 17.1696 23.2975 16.8027 23.5395 16.5623C23.9168 16.1877 24.5036 16.1742 24.5505 16.1737C24.5571 16.174 24.5563 16.1738 24.5652 16.1738C25.4444 16.1738 26.1598 16.8891 26.1598 17.7683C26.1598 18.6476 25.4445 19.3629 24.5652 19.3629H13.135C12.7455 19.3629 12.4297 19.6787 12.4297 20.0682C12.4297 20.4578 12.7455 20.7736 13.135 20.7736Z" fill="#3B429F"/>
<path d="M13.135 18.0107H18.5832C20.2403 18.0107 21.5885 16.6625 21.5885 15.0054C21.5885 13.3506 20.2443 12.0039 18.5904 12.0001C18.4255 11.9978 17.3693 12.0125 16.5795 12.7826C16.0503 13.2986 15.782 14.0076 15.782 14.8899C15.782 15.2794 16.0977 15.5953 16.4873 15.5953C16.8769 15.5953 17.1926 15.2795 17.1926 14.8899C17.1926 14.4067 17.3154 14.0398 17.5575 13.7994C17.9347 13.4249 18.5215 13.4113 18.5686 13.4108C18.5752 13.411 18.5743 13.4109 18.5832 13.4109C19.4624 13.4109 20.1777 14.1262 20.1777 15.0054C20.1777 15.8846 19.4624 16.5999 18.5832 16.5999H13.135C12.7455 16.5999 12.4297 16.9157 12.4297 17.3053C12.4297 17.6949 12.7455 18.0107 13.135 18.0107Z" fill="#3B429F"/>
<path d="M24.5652 21.9894H13.135C12.7455 21.9894 12.4297 22.3052 12.4297 22.6947C12.4297 23.0843 12.7455 23.4001 13.135 23.4001H24.5652C25.4444 23.4001 26.1598 24.1154 26.1598 24.9946C26.1598 25.8738 25.4445 26.5891 24.5652 26.5891C24.5563 26.5891 24.5571 26.589 24.5506 26.5892C24.5036 26.5888 23.9167 26.5752 23.5396 26.2006C23.2975 25.9603 23.1747 25.5934 23.1747 25.1101C23.1747 24.7206 22.859 24.4047 22.4694 24.4047C22.0799 24.4047 21.7641 24.7205 21.7641 25.1101C21.7641 25.9924 22.0324 26.7015 22.5616 27.2175C23.3198 27.9567 24.3239 28.0001 24.5484 28C24.5578 28 24.5658 28 24.5724 27.9999C26.2263 27.9959 27.5705 26.6493 27.5705 24.9946C27.5705 23.3375 26.2224 21.9894 24.5652 21.9894Z" fill="#3B429F"/>
</g>
<defs>
<clipPath id="clip0_236_2421">
<rect width="16" height="16" fill="white" transform="translate(12 12)"/>
</clipPath>
</defs>
</svg>
