<svg width="40" height="40" viewBox="0 0 40 40" fill="none" xmlns="http://www.w3.org/2000/svg">
<path d="M19.8224 1.92761C9.84073 1.92761 1.75 10.0183 1.75 20C1.75 29.9817 9.84073 38.0724 19.8224 38.0724C29.8041 38.0724 37.8948 29.9817 37.8948 20C37.8948 10.0183 29.8041 1.92761 19.8224 1.92761ZM19.8224 35.3426C11.3484 35.3426 4.47977 28.474 4.47977 20C4.47977 11.526 11.3484 4.65738 19.8224 4.65738C28.2964 4.65738 35.165 11.526 35.165 20C35.1648 28.4738 28.2962 35.3426 19.8224 35.3426Z" fill="#F2F2F2"/>
<path d="M20 0C8.95379 0 0 8.95379 0 20C0 31.0462 8.95379 40 20 40C31.0462 40 40 31.0462 40 20C40 8.95379 31.0462 0 20 0ZM20 39.0922C9.45502 39.0922 0.907853 30.5448 0.907853 20C0.907853 9.45502 9.45519 0.907853 20 0.907853C30.5448 0.907853 39.0921 9.45519 39.0921 20C39.0921 30.5448 30.5448 39.0922 20 39.0922Z" fill="#F2F2F2"/>
<path d="M25.5914 17.9824L25.5672 17.9498L25.5625 17.9402L23.3715 14.6877L21.1805 17.9402L21.176 17.9493L21.1516 17.9824C20.8001 18.4586 20.6143 19.0242 20.6143 19.6183C20.6143 21.1387 21.8512 22.3755 23.3715 22.3755C24.8918 22.3755 26.1287 21.1387 26.1287 19.6183C26.1288 19.0242 25.9429 18.4585 25.5914 17.9824Z" fill="#3B429F"/>
<path d="M23.3717 23.3149C21.3333 23.3149 19.675 21.6566 19.675 19.6183C19.675 18.8259 19.9219 18.0709 20.389 17.434L21.8292 15.2959L19.6089 12L14.9828 18.8673C14.2554 19.8571 13.8711 21.0307 13.8711 22.2622C13.8711 25.426 16.4451 28 19.6089 28C22.6067 28 25.0745 25.689 25.3253 22.7551C24.7581 23.1096 24.0885 23.3149 23.3717 23.3149Z" fill="#3B429F"/>
</svg>
