<svg width="40" height="40" viewBox="0 0 40 40" fill="none" xmlns="http://www.w3.org/2000/svg">
<path d="M20.215 2.14282C10.2333 2.14282 2.14258 10.2336 2.14258 20.2152C2.14258 30.1969 10.2333 38.2876 20.215 38.2876C30.1966 38.2876 38.2874 30.1969 38.2874 20.2152C38.2874 10.2336 30.1966 2.14282 20.215 2.14282ZM20.215 35.5578C11.741 35.5578 4.87235 28.6892 4.87235 20.2152C4.87235 11.7412 11.741 4.87259 20.215 4.87259C28.689 4.87259 35.5576 11.7412 35.5576 20.2152C35.5574 28.6891 28.6888 35.5578 20.215 35.5578Z" fill="#F2F2F2"/>
<path d="M20 0C8.95379 0 0 8.95379 0 20C0 31.0462 8.95379 40 20 40C31.0462 40 40 31.0462 40 20C40 8.95379 31.0462 0 20 0ZM20 39.0922C9.45502 39.0922 0.907853 30.5448 0.907853 20C0.907853 9.45502 9.45519 0.907853 20 0.907853C30.5448 0.907853 39.0921 9.45519 39.0921 20C39.0921 30.5448 30.5448 39.0922 20 39.0922Z" fill="#F2F2F2"/>
<path d="M26.5897 14.5C23.8595 14.5 21.768 13.7199 19.9992 12C18.2307 13.7199 16.1393 14.5 13.4093 14.5C13.4093 18.9786 12.4826 25.3946 19.9992 28C27.5164 25.3946 26.5897 18.9786 26.5897 14.5Z" fill="#3B429F"/>
</svg>
