<svg width="40" height="40" viewBox="0 0 40 40" fill="none" xmlns="http://www.w3.org/2000/svg">
<path d="M20.0724 2C10.0907 2 2 10.0907 2 20.0724C2 30.0541 10.0907 38.1448 20.0724 38.1448C30.0541 38.1448 38.1448 30.0541 38.1448 20.0724C38.1448 10.0907 30.0541 2 20.0724 2ZM20.0724 35.415C11.5984 35.415 4.72977 28.5464 4.72977 20.0724C4.72977 11.5984 11.5984 4.72977 20.0724 4.72977C28.5464 4.72977 35.415 11.5984 35.415 20.0724C35.4148 28.5462 28.5462 35.415 20.0724 35.415Z" fill="#F2F2F2"/>
<path d="M20 0C8.95379 0 0 8.95379 0 20C0 31.0462 8.95379 40 20 40C31.0462 40 40 31.0462 40 20C40 8.95379 31.0462 0 20 0ZM20 39.0922C9.45502 39.0922 0.907853 30.5448 0.907853 20C0.907853 9.45502 9.45519 0.907853 20 0.907853C30.5448 0.907853 39.0921 9.45519 39.0921 20C39.0921 30.5448 30.5448 39.0922 20 39.0922Z" fill="#F2F2F2"/>
<g clip-path="url(#clip0_236_2384)">
<path d="M23.6997 18.6053H16.2998L19.9997 27.5839L23.6997 18.6053Z" fill="#3B429F"/>
<path d="M16.5078 17.6678H23.4912L19.9995 12.7562L16.5078 17.6678Z" fill="#3B429F"/>
<path d="M23.9312 16.6682V12.416H20.9082L23.9312 16.6682Z" fill="#3B429F"/>
<path d="M15.1312 12.416L12 17.6679H15.1312V12.416Z" fill="#3B429F"/>
<path d="M16.0684 16.6682L19.0913 12.416H16.0684V16.6682Z" fill="#3B429F"/>
<path d="M21.0137 27.5839L27.9997 18.6053H24.7136L21.0137 27.5839Z" fill="#3B429F"/>
<path d="M24.8691 17.6679H28.0003L24.8691 12.416V17.6679Z" fill="#3B429F"/>
<path d="M15.2861 18.6053H12L18.986 27.5839L15.2861 18.6053Z" fill="#3B429F"/>
</g>
<defs>
<clipPath id="clip0_236_2384">
<rect width="16" height="16" fill="white" transform="translate(12 12)"/>
</clipPath>
</defs>
</svg>
