<svg width="40" height="40" viewBox="0 0 40 40" fill="none" xmlns="http://www.w3.org/2000/svg">
<path d="M19.8219 1.92761C9.84024 1.92761 1.74951 10.0183 1.74951 20C1.74951 29.9817 9.84024 38.0724 19.8219 38.0724C29.8036 38.0724 37.8943 29.9817 37.8943 20C37.8943 10.0183 29.8036 1.92761 19.8219 1.92761ZM19.8219 35.3426C11.3479 35.3426 4.47928 28.474 4.47928 20C4.47928 11.526 11.3479 4.65738 19.8219 4.65738C28.2959 4.65738 35.1645 11.526 35.1645 20C35.1644 28.4738 28.2957 35.3426 19.8219 35.3426Z" fill="#F2F2F2"/>
<path d="M20 0C8.95379 0 0 8.95379 0 20C0 31.0462 8.95379 40 20 40C31.0462 40 40 31.0462 40 20C40 8.95379 31.0462 0 20 0ZM20 39.0922C9.45502 39.0922 0.907853 30.5448 0.907853 20C0.907853 9.45502 9.45519 0.907853 20 0.907853C30.5448 0.907853 39.0921 9.45519 39.0921 20C39.0921 30.5448 30.5448 39.0922 20 39.0922Z" fill="#F2F2F2"/>
<path d="M16.9893 22.2532V23.5715H13.3955V22.2532H16.9893ZM14.0059 16.4622V23.5715H12.292V16.4622H14.0059Z" fill="#3B429F"/>
<path d="M22.7045 22.2532V23.5715H18.9154V22.2532H22.7045ZM19.5258 16.4622V23.5715H17.8119V16.4622H19.5258ZM22.2162 19.2844V20.5588H18.9154V19.2844H22.2162ZM22.7191 16.4622V17.7854H18.9154V16.4622H22.7191Z" fill="#3B429F"/>
<path d="M25.8172 23.5715H24.24L24.2498 22.2532H25.8172C26.1427 22.2532 26.4178 22.175 26.6424 22.0188C26.8702 21.8625 27.0428 21.6298 27.16 21.3206C27.2804 21.0081 27.3406 20.6239 27.3406 20.1682V19.8606C27.3406 19.5188 27.3064 19.2193 27.2381 18.9622C27.173 18.7017 27.0753 18.4853 26.9451 18.3127C26.8149 18.137 26.6521 18.0051 26.4568 17.9172C26.2648 17.8293 26.0434 17.7854 25.7928 17.7854H24.2107V16.4622H25.7928C26.2745 16.4622 26.7156 16.5452 27.116 16.7112C27.5197 16.8739 27.868 17.1083 28.1609 17.4143C28.4572 17.717 28.685 18.0767 28.8445 18.4934C29.0073 18.9068 29.0887 19.3658 29.0887 19.8704V20.1682C29.0887 20.6695 29.0073 21.1285 28.8445 21.5452C28.685 21.9618 28.4588 22.3215 28.1658 22.6243C27.8729 22.927 27.5262 23.1614 27.1258 23.3274C26.7286 23.4902 26.2924 23.5715 25.8172 23.5715ZM25.2215 16.4622V23.5715H23.5076V16.4622H25.2215Z" fill="#3B429F"/>
</svg>
