<svg width="40" height="40" viewBox="0 0 40 40" fill="none" xmlns="http://www.w3.org/2000/svg">
<path d="M20.215 2.14282C10.2333 2.14282 2.14258 10.2336 2.14258 20.2152C2.14258 30.1969 10.2333 38.2876 20.215 38.2876C30.1966 38.2876 38.2874 30.1969 38.2874 20.2152C38.2874 10.2336 30.1966 2.14282 20.215 2.14282ZM20.215 35.5578C11.741 35.5578 4.87235 28.6892 4.87235 20.2152C4.87235 11.7412 11.741 4.87259 20.215 4.87259C28.689 4.87259 35.5576 11.7412 35.5576 20.2152C35.5574 28.6891 28.6888 35.5578 20.215 35.5578Z" fill="#F2F2F2"/>
<path d="M20 0C8.95379 0 0 8.95379 0 20C0 31.0462 8.95379 40 20 40C31.0462 40 40 31.0462 40 20C40 8.95379 31.0462 0 20 0ZM20 39.0922C9.45502 39.0922 0.907853 30.5448 0.907853 20C0.907853 9.45502 9.45519 0.907853 20 0.907853C30.5448 0.907853 39.0921 9.45519 39.0921 20C39.0921 30.5448 30.5448 39.0922 20 39.0922Z" fill="#F2F2F2"/>
<path d="M20.0003 26.756C20.7582 26.756 21.3727 26.1415 21.3727 25.3836C21.3727 24.6257 20.7582 24.0112 20.0003 24.0112C19.2424 24.0112 18.6279 24.6257 18.6279 25.3836C18.6279 26.1415 19.2424 26.756 20.0003 26.756Z" fill="#3B429F"/>
<path d="M22.8505 23.2805C22.6592 23.2805 22.4679 23.2075 22.322 23.0615C21.7017 22.4413 20.8771 22.0997 19.9999 22.0997C19.1228 22.0997 18.2981 22.4413 17.6779 23.0615C17.386 23.3535 16.9127 23.3535 16.6208 23.0615C16.3289 22.7696 16.3289 22.2964 16.6208 22.0044C17.5234 21.1018 18.7235 20.6047 19.9999 20.6047C21.2764 20.6047 22.4765 21.1018 23.3791 22.0044C23.671 22.2964 23.671 22.7697 23.3791 23.0616C23.2331 23.2075 23.0418 23.2805 22.8505 23.2805Z" fill="#3B429F"/>
<path d="M25.3375 20.7939C25.1462 20.7939 24.955 20.7209 24.809 20.575C22.1574 17.9234 17.8431 17.9234 15.1916 20.575C14.8997 20.8669 14.4264 20.8669 14.1345 20.575C13.8425 20.283 13.8425 19.8098 14.1345 19.5179C17.3689 16.2834 22.6317 16.2834 25.8661 19.5179C26.158 19.8098 26.158 20.283 25.8661 20.575C25.7202 20.7209 25.5289 20.7939 25.3375 20.7939Z" fill="#3B429F"/>
<path d="M27.8241 18.3073C27.6328 18.3073 27.4415 18.2343 27.2955 18.0884C23.2729 14.0658 16.7275 14.0657 12.7048 18.0884C12.4129 18.3803 11.9395 18.3803 11.6477 18.0884C11.3557 17.7964 11.3557 17.3232 11.6477 17.0313C13.8787 14.8002 16.845 13.5715 20.0001 13.5715C23.1553 13.5715 26.1216 14.8002 28.3526 17.0313C28.6445 17.3232 28.6445 17.7964 28.3526 18.0884C28.2067 18.2343 28.0154 18.3073 27.8241 18.3073Z" fill="#3B429F"/>
</svg>
