<svg width="352" height="59" viewBox="0 0 352 59" fill="none" xmlns="http://www.w3.org/2000/svg">
<g clip-path="url(#clip0_70_716)">
<rect width="88.5" height="59" fill="white"/>
<path d="M0 0V59H89.1732V0H0ZM41.7246 47.8085L44.7464 42.844H55.6424L47.2162 29.0984L46.3445 30.5333L43.4098 35.3255L38.7899 42.844L35.7681 47.8084H12.0583L34.4896 11.1919L43.4098 25.7406L47.2162 19.5138L64.5627 47.8084L41.7246 47.8085ZM77.1149 31.9681H71.7977V37.2192H66.8V31.968H61.4827V27.0322H66.7999V21.7807H71.7976V27.0322H77.1148L77.1149 31.9681ZM20.9785 42.844H32.9206L40.4752 30.5333L34.4896 20.7762L20.9785 42.844Z" fill="#ED3636"/>
<path d="M120.363 18.6494L117.524 25.2966L115.909 29.0928L113.075 35.7417L111.101 40.3626H103.802L105.77 35.7417L108.604 29.0928L112.139 20.8047L113.059 18.6494H120.363Z" fill="white"/>
<path d="M144.487 40.3626H137.183L135.212 35.7417L132.38 29.0928L130.758 25.2966L127.926 18.6494H135.23L138.069 25.2966L139.685 29.0928L142.517 35.7417L144.487 40.3626Z" fill="white"/>
<path d="M138.069 25.2966H112.14V20.8047L113.06 18.6494H135.23L138.069 25.2966Z" fill="white"/>
<path d="M142.516 35.7417H105.771L108.604 29.0928H139.684L142.516 35.7417Z" fill="white"/>
<path d="M280.23 18.6494L277.392 25.2966L275.777 29.0928L272.943 35.7417L270.969 40.3626H263.67L265.639 35.7417L268.472 29.0928L272.005 20.8047L272.925 18.6494H280.23Z" fill="white"/>
<path d="M304.353 40.3626H297.048L295.08 35.7417L292.246 29.0928L290.625 25.2966L287.793 18.6494H295.097L297.935 25.2966L299.55 29.0928L302.384 35.7417L304.353 40.3626Z" fill="white"/>
<path d="M297.935 25.2966H272.005V20.8047L272.925 18.6494H295.097L297.935 25.2966Z" fill="white"/>
<path d="M302.385 35.7417H265.639L268.472 29.0928H299.551L302.385 35.7417Z" fill="white"/>
<path d="M221.932 18.6484H215.2V40.3607H221.932V18.6484Z" fill="white"/>
<path d="M314.062 18.6484H307.33V40.3607H314.062V18.6484Z" fill="white"/>
<path d="M154.653 18.6484H147.921V40.3607H154.653V18.6484Z" fill="white"/>
<path d="M173.977 33.7119H147.921V40.3606H173.977V33.7119Z" fill="white"/>
<path d="M234.056 18.6756V40.3626H227.324V18.6494H234.018L234.056 18.6756Z" fill="white"/>
<path d="M260.11 18.6494V40.3626H253.419L253.378 40.3347V18.6494H260.11Z" fill="white"/>
<path d="M260.11 36.8995V40.3626H253.418L253.378 40.3347L234.056 26.8206L227.324 22.1177V18.6494H234.018L234.056 18.6756L253.378 32.1897L260.11 36.8995Z" fill="white"/>
<path d="M185.113 19.1011H178.381V40.3611H185.113V19.1011Z" fill="white"/>
<path d="M204.932 18.6528H178.375V35.7275H204.932C206.388 35.7237 207.782 35.1511 208.811 34.1348C209.84 33.1185 210.42 31.7411 210.424 30.3039V24.1054C210.426 22.6636 209.849 21.2798 208.82 20.2576C207.79 19.2354 206.392 18.6583 204.932 18.6528ZM203.712 29.0986H185.116V25.3107H203.712V29.0986Z" fill="white"/>
<path d="M326.323 19.1011H319.591V40.3608H326.323V19.1011Z" fill="white"/>
<path d="M346.116 18.6528H319.588V35.7275H346.116C346.978 35.7361 347.827 35.5286 348.586 35.1246C349.501 34.6851 350.273 33.9998 350.813 33.1473C351.352 32.2947 351.638 31.3093 351.637 30.3039V24.1054C351.637 23.3893 351.495 22.6801 351.217 22.0185C350.94 21.3568 350.533 20.7556 350.021 20.2492C349.508 19.7429 348.899 19.3412 348.229 19.0673C347.559 18.7934 346.841 18.6525 346.116 18.6528ZM326.329 25.3107H344.896V29.0986H326.329V25.3107Z" fill="white"/>
<path d="M346.025 30.751L351.639 40.3591H343.864L340.189 34.0763L346.025 30.751Z" fill="white"/>
</g>
<defs>
<clipPath id="clip0_70_716">
<rect width="351.64" height="59" fill="white"/>
</clipPath>
</defs>
</svg>
