<svg width="56" height="56" viewBox="0 0 56 56" fill="none" xmlns="http://www.w3.org/2000/svg">
<path d="M45.1613 21.947L45.0889 21.849L45.0746 21.8203L38.5017 12.063L31.9288 21.8204L31.9151 21.8478L31.8421 21.9471C30.7874 23.3754 30.23 25.0724 30.23 26.8547C30.23 31.4158 33.9407 35.1264 38.5017 35.1264C43.0626 35.1264 46.7733 31.4157 46.7733 26.8547C46.7735 25.0723 46.216 23.3752 45.1613 21.947Z" fill="#ED3636"/>
<path d="M38.5017 37.9448C32.3866 37.9448 27.4118 32.9698 27.4118 26.8548C27.4118 24.4777 28.1523 22.2126 29.5536 20.3021L33.8744 13.8878L27.2134 4L13.3351 24.6019C11.153 27.5713 10 31.092 10 34.7865C10 44.2781 17.7219 52 27.2135 52C36.2068 52 43.6103 45.0671 44.3627 36.2652C42.6611 37.3289 40.6522 37.9448 38.5017 37.9448Z" fill="#ED3636"/>
</svg>
