<svg width="56" height="56" viewBox="0 0 56 56" fill="none" xmlns="http://www.w3.org/2000/svg">
<path fill-rule="evenodd" clip-rule="evenodd" d="M22.9834 30.508C31.2901 30.508 38.0334 37.2513 38.0334 45.558C38.0334 37.2513 44.7767 30.508 53.0834 30.508C44.7767 30.508 38.0334 23.7647 38.0334 15.458C38.0334 23.7647 31.2901 30.508 22.9834 30.508Z" fill="#ED3636"/>
<path fill-rule="evenodd" clip-rule="evenodd" d="M2.91699 43.0499C8.45399 43.0499 12.9503 47.5463 12.9503 53.0833C12.9503 47.5463 17.4467 43.0499 22.9837 43.0499C17.4467 43.0499 12.9503 38.5536 12.9503 33.0166C12.9503 38.5536 8.45399 43.0499 2.91699 43.0499Z" fill="#ED3636"/>
<path fill-rule="evenodd" clip-rule="evenodd" d="M7.93359 12.9498C13.4706 12.9498 17.9669 17.4462 17.9669 22.9832C17.9669 17.4462 22.4633 12.9498 28.0003 12.9498C22.4633 12.9498 17.9669 8.4535 17.9669 2.9165C17.9669 8.4535 13.4706 12.9498 7.93359 12.9498Z" fill="#ED3636"/>
</svg>
