<svg width="56" height="56" viewBox="0 0 56 56" fill="none" xmlns="http://www.w3.org/2000/svg">
<path d="M50.9999 42.6089H45.4423C44.5387 39.6017 41.7755 37.3916 38.4782 37.3916C35.1809 37.3916 32.4198 39.6017 31.5141 42.6089H5.08692C3.93492 42.6089 3 43.544 3 44.696C3 45.848 3.93492 46.7829 5.08692 46.7829H31.514C32.4176 49.7901 35.1808 52.0002 38.4781 52.0002C41.7754 52.0002 44.5366 49.7901 45.4422 46.7829H50.9998C52.1539 46.7829 53.0867 45.848 53.0867 44.696C53.0867 43.544 52.154 42.6089 50.9999 42.6089ZM38.4782 47.8264C36.7523 47.8264 35.3478 46.4219 35.3478 44.696C35.3478 42.97 36.7523 41.5655 38.4782 41.5655C40.2042 41.5655 41.6086 42.97 41.6086 44.696C41.6086 46.4219 40.2041 47.8264 38.4782 47.8264Z" fill="#ED3636"/>
<path d="M50.9999 9.21735H45.4423C44.5366 6.21008 41.7755 4 38.4782 4C35.1809 4 32.4198 6.21008 31.514 9.21735H5.08692C3.93492 9.21735 3 10.1523 3 11.3043C3 12.4563 3.93492 13.3912 5.08692 13.3912H31.514C32.4198 16.3985 35.1808 18.6086 38.4782 18.6086C41.7756 18.6086 44.5367 16.3985 45.4423 13.3913H50.9999C52.154 13.3913 53.0868 12.4564 53.0868 11.3044C53.0868 10.1524 52.154 9.21735 50.9999 9.21735ZM38.4782 14.4347C36.7523 14.4347 35.3478 13.0302 35.3478 11.3043C35.3478 9.57832 36.7523 8.17384 38.4782 8.17384C40.2042 8.17384 41.6086 9.57832 41.6086 11.3043C41.6086 13.0302 40.2041 14.4347 38.4782 14.4347Z" fill="#ED3636"/>
<path d="M50.9999 25.9131H24.5729C23.6671 22.9059 20.906 20.6958 17.6087 20.6958C14.3114 20.6958 11.5503 22.9059 10.6446 25.9131H5.08692C3.93492 25.9131 3 26.8481 3 28.0001C3 29.1521 3.93492 30.087 5.08692 30.087H10.6445C11.5503 33.0942 14.3113 35.3043 17.6086 35.3043C20.9059 35.3043 23.6671 33.0942 24.5728 30.087H50.9998C52.1539 30.087 53.0867 29.1521 53.0867 28.0001C53.0868 26.8481 52.154 25.9131 50.9999 25.9131ZM17.6086 31.1305C15.8827 31.1305 14.4782 29.726 14.4782 28.0001C14.4782 26.2741 15.8827 24.8696 17.6086 24.8696C19.3346 24.8696 20.7391 26.2741 20.7391 28.0001C20.7391 29.726 19.3346 31.1305 17.6086 31.1305Z" fill="#ED3636"/>
</svg>
