<svg width="56" height="56" viewBox="0 0 56 56" fill="none" xmlns="http://www.w3.org/2000/svg">
<path d="M7.11608 30.3211H41.4065C46.3781 30.3211 50.4224 26.2765 50.4224 21.3053C50.4224 16.3412 46.3897 12.3013 41.4281 12.2896C40.9393 12.2822 37.7656 12.3261 35.3957 14.6368C33.8079 16.1848 33.0031 18.3118 33.0031 20.9586C33.0031 22.1273 33.9504 23.0747 35.1192 23.0747C36.2879 23.0747 37.2351 22.1272 37.2351 20.9586C37.2351 19.509 37.6035 18.4083 38.3296 17.6873C39.4613 16.5634 41.2217 16.5229 41.3625 16.5215C41.3823 16.5221 41.3798 16.5218 41.4064 16.5218C44.0442 16.5218 46.1902 18.6677 46.1902 21.3053C46.1902 23.943 44.0443 26.0889 41.4064 26.0889H7.11608C5.94737 26.0889 5 27.0363 5 28.2049C5 29.3736 5.94737 30.3211 7.11608 30.3211Z" fill="#ED3636"/>
<path d="M7.11608 22.032H23.4606C28.4319 22.032 32.4763 17.9874 32.4763 13.0161C32.4763 8.05182 28.4438 4.01174 23.482 4.00044C22.9875 3.99354 19.8188 4.03762 17.4495 6.34766C15.8619 7.89582 15.0569 10.0229 15.0569 12.6696C15.0569 13.8383 16.0042 14.7859 17.1729 14.7859C18.3417 14.7859 19.2889 13.8384 19.2889 12.6696C19.2889 11.2201 19.6573 10.1193 20.3834 9.39833C21.5149 8.27456 23.2754 8.23378 23.4166 8.23237C23.4364 8.233 23.4337 8.23268 23.4606 8.23268C26.0981 8.23268 28.2442 10.3786 28.2442 13.0161C28.2442 15.6539 26.0983 17.7997 23.4606 17.7997H7.11608C5.94737 17.7997 5 18.7472 5 19.916C5 21.0848 5.94737 22.032 7.11608 22.032Z" fill="#ED3636"/>
<path d="M41.4065 33.9683H7.11608C5.94737 33.9683 5 34.9157 5 36.0843C5 37.2529 5.94729 38.2004 7.11608 38.2004H41.4065C44.0443 38.2004 46.1903 40.3463 46.1903 42.9839C46.1903 45.6216 44.0444 47.7675 41.4065 47.7675C41.3799 47.7675 41.3824 47.767 41.3626 47.7678C41.2217 47.7664 39.4612 47.7258 38.3297 46.602C37.6035 45.881 37.2351 44.7803 37.2351 43.3305C37.2351 42.1618 36.2879 41.2143 35.1192 41.2143C33.9505 41.2143 33.0031 42.1618 33.0031 43.3305C33.0031 45.9774 33.808 48.1045 35.3958 49.6525C37.6702 51.8703 40.6826 52.0003 41.3561 52.0002C41.3844 52.0002 41.4084 52 41.4282 51.9997C46.3897 51.988 50.4225 47.948 50.4225 42.984C50.4225 38.0127 46.3781 33.9683 41.4065 33.9683Z" fill="#ED3636"/>
</svg>
