<svg width="56" height="56" viewBox="0 0 56 56" fill="none" xmlns="http://www.w3.org/2000/svg">
<path d="M8.98933 26.3696C8.04459 26.3722 7.1199 26.6423 6.32225 27.1485C5.5246 27.6548 4.88657 28.3765 4.482 29.2303C4.07742 30.084 3.92282 31.0348 4.03609 31.9728C4.14936 32.9107 4.52586 33.7974 5.12204 34.5303L17.8312 50.099C18.2844 50.6616 18.8652 51.1081 19.5255 51.4012C20.1859 51.6943 20.9066 51.8256 21.6279 51.7842C23.1705 51.7014 24.5632 50.8762 25.4511 49.5194L51.8513 7.00189C51.8557 6.99483 51.8602 6.98778 51.8648 6.98083C52.1125 6.60049 52.0322 5.84676 51.5209 5.37326C51.3804 5.24323 51.2149 5.14333 51.0343 5.07972C50.8538 5.0161 50.6622 4.99012 50.4712 5.00336C50.2803 5.01661 50.0941 5.0688 49.9241 5.15673C49.754 5.24466 49.6038 5.36646 49.4827 5.51464C49.4732 5.52629 49.4634 5.53776 49.4534 5.54906L22.8285 35.6313C22.7272 35.7457 22.6041 35.8389 22.4665 35.9055C22.3288 35.972 22.1794 36.0105 22.0267 36.0187C21.8741 36.027 21.7213 36.0048 21.5773 35.9536C21.4333 35.9023 21.3009 35.8229 21.1878 35.72L12.3515 27.6789C11.4338 26.8376 10.2343 26.3705 8.98933 26.3696Z" fill="#ED3636"/>
</svg>
