<svg width="56" height="56" viewBox="0 0 56 56" fill="none" xmlns="http://www.w3.org/2000/svg">
<path d="M28 36.835C26.6581 36.835 25.5332 37.9598 25.5332 39.3017C25.5332 40.6437 26.6581 41.7685 28 41.7685C29.2926 41.7685 30.4668 40.6437 30.4076 39.3609C30.4668 37.9499 29.3518 36.835 28 36.835Z" fill="#ED3636"/>
<path d="M50.832 45.5771C52.3811 42.9031 52.391 39.716 50.8517 37.0519L35.3997 10.2922C33.8703 7.59848 31.1075 6 28.0093 6C24.911 6 22.1482 7.60834 20.6188 10.2823L5.1471 37.0716C3.60783 39.7654 3.6177 42.9722 5.1767 45.6462C6.71598 48.2906 9.46891 49.8792 12.5475 49.8792H43.4119C46.5003 49.8792 49.2729 48.2708 50.832 45.5771ZM47.4771 43.6431C46.6187 45.1232 45.0991 46.0014 43.402 46.0014H12.5376C10.8602 46.0014 9.3505 45.1429 8.5118 43.6925C7.66322 42.2223 7.65335 40.4659 8.50193 38.9858L23.9736 12.2064C24.8123 10.7362 26.3121 9.86792 28.0093 9.86792C29.6965 9.86792 31.2062 10.7461 32.0449 12.2163L47.5067 38.9957C48.3356 40.4363 48.3257 42.1729 47.4771 43.6431Z" fill="#ED3636"/>
<path d="M27.3878 19.5184C26.2136 19.8539 25.4834 20.9195 25.4834 22.2121C25.5426 22.9916 25.5919 23.781 25.6511 24.5605C25.8189 27.5305 25.9866 30.4413 26.1544 33.4113C26.2136 34.4178 26.9931 35.1479 27.9995 35.1479C29.006 35.1479 29.7953 34.3684 29.8447 33.3521C29.8447 32.7403 29.8447 32.1779 29.9039 31.5563C30.0124 29.6519 30.1308 27.7476 30.2394 25.8432C30.2986 24.6098 30.4071 23.3764 30.4663 22.143C30.4663 21.699 30.4071 21.3043 30.2394 20.9096C29.7361 19.8045 28.5619 19.2421 27.3878 19.5184Z" fill="#ED3636"/>
</svg>
