<svg width="56" height="56" viewBox="0 0 56 56" fill="none" xmlns="http://www.w3.org/2000/svg">
<path d="M42.3159 21.0931L37.9628 22.2598L31.7328 18.6664L37.9628 15.0694L42.3159 16.236C42.4739 16.2781 42.6367 16.2994 42.8003 16.2995C43.2531 16.2993 43.6904 16.1344 44.0307 15.8357C44.371 15.537 44.5911 15.1247 44.6501 14.6757C44.709 14.2267 44.6027 13.7717 44.351 13.3952C44.0993 13.0188 43.7193 12.7467 43.2819 12.6296L42.5352 12.4299L42.6743 12.3496C43.0995 12.1003 43.4089 11.693 43.5349 11.2164C43.6609 10.7399 43.5933 10.2328 43.3468 9.80594C43.1003 9.37906 42.695 9.06699 42.2193 8.93784C41.7436 8.80869 41.2361 8.87294 40.8076 9.11657L40.6685 9.19684L40.8683 8.45017C40.9371 8.21174 40.9578 7.96197 40.9289 7.71547C40.9001 7.46897 40.8224 7.23069 40.7004 7.01458C40.5784 6.79846 40.4145 6.60884 40.2184 6.45681C40.0222 6.30478 39.7977 6.1934 39.558 6.12917C39.3183 6.06494 39.0681 6.04916 38.8223 6.08275C38.5764 6.11634 38.3396 6.19863 38.1259 6.3248C37.9122 6.45097 37.7258 6.61849 37.5776 6.81756C37.4294 7.01663 37.3224 7.24325 37.2628 7.48417L36.0961 11.8363L29.8661 15.4334V8.23924L33.0525 5.05284C33.3926 4.70078 33.5807 4.22926 33.5765 3.73982C33.5722 3.25039 33.3759 2.78221 33.0298 2.43611C32.6837 2.09002 32.2155 1.8937 31.7261 1.88945C31.2367 1.88519 30.7651 2.07334 30.4131 2.41337L29.8661 2.96031V2.79977C29.8661 2.3047 29.6695 1.82991 29.3194 1.47984C28.9693 1.12977 28.4945 0.933105 27.9995 0.933105C27.5044 0.933105 27.0296 1.12977 26.6795 1.47984C26.3295 1.82991 26.1328 2.3047 26.1328 2.79977V2.96031L25.5859 2.41337C25.2338 2.07334 24.7623 1.88519 24.2729 1.88945C23.7834 1.8937 23.3152 2.09002 22.9691 2.43611C22.623 2.78221 22.4267 3.25039 22.4225 3.73982C22.4182 4.22926 22.6064 4.70078 22.9464 5.05284L26.1328 8.23924V15.4334L19.9028 11.8363L18.7361 7.48417C18.6766 7.24325 18.5695 7.01663 18.4213 6.81756C18.2731 6.61849 18.0867 6.45097 17.873 6.3248C17.6593 6.19863 17.4226 6.11634 17.1767 6.08275C16.9308 6.04916 16.6807 6.06494 16.441 6.12917C16.2012 6.1934 15.9767 6.30478 15.7806 6.45681C15.5844 6.60884 15.4205 6.79846 15.2985 7.01458C15.1765 7.23069 15.0988 7.46897 15.07 7.71547C15.0412 7.96197 15.0618 8.21174 15.1307 8.45017L15.3304 9.19684L15.1913 9.11657C14.7628 8.87294 14.2553 8.80869 13.7796 8.93784C13.3039 9.06699 12.8986 9.37906 12.6522 9.80594C12.4057 10.2328 12.3381 10.7399 12.4641 11.2164C12.5901 11.693 12.8994 12.1003 13.3247 12.3496L13.4637 12.4299L12.7171 12.6296C12.2796 12.7467 11.8997 13.0188 11.648 13.3952C11.3963 13.7717 11.29 14.2267 11.3489 14.6757C11.4078 15.1247 11.6279 15.537 11.9682 15.8357C12.3085 16.1344 12.7458 16.2993 13.1987 16.2995C13.3622 16.2994 13.525 16.2781 13.6831 16.236L18.0361 15.0694L24.2661 18.6664L18.0361 22.2635L13.6831 21.0931C13.2048 20.965 12.6953 21.0321 12.2665 21.2797C11.8378 21.5273 11.525 21.9351 11.3969 22.4133C11.2688 22.8915 11.3359 23.4011 11.5835 23.8298C11.8311 24.2586 12.2388 24.5714 12.7171 24.6995L13.4637 24.8992L13.3247 24.9795C13.1107 25.1012 12.9228 25.264 12.772 25.4585C12.6212 25.6531 12.5103 25.8756 12.4458 26.1131C12.3813 26.3507 12.3645 26.5987 12.3962 26.8428C12.4279 27.087 12.5076 27.3224 12.6307 27.5356C12.7538 27.7488 12.9178 27.9355 13.1134 28.0851C13.309 28.2346 13.5322 28.344 13.7702 28.4069C14.0082 28.4698 14.2562 28.485 14.5002 28.4517C14.7441 28.4183 14.979 28.3371 15.1913 28.2126L15.3304 28.1323L15.1307 28.879C15.0618 29.1174 15.0412 29.3672 15.07 29.6137C15.0988 29.8602 15.1765 30.0985 15.2985 30.3146C15.4205 30.5307 15.5844 30.7203 15.7806 30.8723C15.9767 31.0244 16.2012 31.1358 16.441 31.2C16.6807 31.2642 16.9308 31.28 17.1767 31.2464C17.4226 31.2128 17.6593 31.1305 17.873 31.0044C18.0867 30.8782 18.2731 30.7107 18.4213 30.5116C18.5695 30.3125 18.6766 30.0859 18.7361 29.845L19.9028 25.4928L26.1328 21.8995V29.0936L22.9464 32.28C22.6064 32.6321 22.4182 33.1036 22.4225 33.5931C22.4267 34.0825 22.623 34.5507 22.9691 34.8968C23.3152 35.2429 23.7834 35.4392 24.2729 35.4434C24.7623 35.4477 25.2338 35.2595 25.5859 34.9195L26.1328 34.3726V34.5331C26.1328 35.0282 26.3295 35.503 26.6795 35.853C27.0296 36.2031 27.5044 36.3998 27.9995 36.3998C28.4945 36.3998 28.9693 36.2031 29.3194 35.853C29.6695 35.503 29.8661 35.0282 29.8661 34.5331V34.3726L30.4131 34.9195C30.7651 35.2595 31.2367 35.4477 31.7261 35.4434C32.2155 35.4392 32.6837 35.2429 33.0298 34.8968C33.3759 34.5507 33.5722 34.0825 33.5765 33.5931C33.5807 33.1036 33.3926 32.6321 33.0525 32.28L29.8661 29.0936V21.8995L36.0961 25.4966L37.2628 29.8487C37.369 30.2455 37.603 30.5961 37.9287 30.8463C38.2543 31.0966 38.6534 31.2324 39.0641 31.2328C39.2277 31.2328 39.3905 31.2114 39.5485 31.1694C39.7854 31.1059 40.0073 30.9964 40.2018 30.8472C40.3963 30.6979 40.5595 30.5118 40.6821 30.2994C40.8046 30.0871 40.8841 29.8527 40.9161 29.6096C40.948 29.3665 40.9318 29.1195 40.8683 28.8827L40.6685 28.136L40.8076 28.2163C41.2361 28.4599 41.7436 28.5242 42.2193 28.395C42.695 28.2659 43.1003 27.9538 43.3468 27.5269C43.5933 27.1001 43.6609 26.593 43.5349 26.1165C43.4089 25.6399 43.0995 25.2325 42.6743 24.9832L42.5352 24.903L43.2819 24.7032C43.7606 24.5751 44.1688 24.2621 44.4168 23.833C44.6647 23.4039 44.732 22.8939 44.6039 22.4152C44.4758 21.9364 44.1628 21.5282 43.7337 21.2803C43.3046 21.0323 42.7946 20.965 42.3159 21.0931Z" fill="#ED3636"/>
<path d="M32.6663 50.3426C32.6663 51.5803 32.1747 52.7673 31.2995 53.6424C30.4243 54.5176 29.2374 55.0093 27.9997 55.0093C26.762 55.0093 25.575 54.5176 24.6998 53.6424C23.8247 52.7673 23.333 51.5803 23.333 50.3426C23.333 47.4913 25.8838 45.2858 27.5209 41.3873C27.5597 41.2921 27.6259 41.2107 27.7112 41.1534C27.7965 41.096 27.8969 41.0654 27.9997 41.0654C28.1024 41.0654 28.2029 41.096 28.2881 41.1534C28.3734 41.2107 28.4397 41.2921 28.4785 41.3873C30.1155 45.2858 32.6663 47.4913 32.6663 50.3426Z" fill="#ED3636"/>
<path d="M19.5999 45.6761C19.5999 46.9138 19.1083 48.1008 18.2331 48.9759C17.3579 49.8511 16.1709 50.3428 14.9333 50.3428C13.6956 50.3428 12.5086 49.8511 11.6334 48.9759C10.7583 48.1008 10.2666 46.9138 10.2666 45.6761C10.2666 42.8248 12.8174 40.6193 14.4545 36.7208C14.4933 36.6256 14.5595 36.5442 14.6448 36.4869C14.7301 36.4295 14.8305 36.3989 14.9333 36.3989C15.036 36.3989 15.1364 36.4295 15.2217 36.4869C15.307 36.5442 15.3733 36.6256 15.4121 36.7208C17.0491 40.6193 19.5999 42.8248 19.5999 45.6761Z" fill="#ED3636"/>
<path d="M45.7337 45.6761C45.7337 46.9138 45.2421 48.1008 44.3669 48.9759C43.4917 49.8511 42.3047 50.3428 41.0671 50.3428C39.8294 50.3428 38.6424 49.8511 37.7672 48.9759C36.8921 48.1008 36.4004 46.9138 36.4004 45.6761C36.4004 42.8248 38.9512 40.6193 40.5883 36.7208C40.6271 36.6256 40.6933 36.5442 40.7786 36.4869C40.8639 36.4295 40.9643 36.3989 41.0671 36.3989C41.1698 36.3989 41.2702 36.4295 41.3555 36.4869C41.4408 36.5442 41.5071 36.6256 41.5459 36.7208C43.1829 40.6193 45.7337 42.8248 45.7337 45.6761Z" fill="#ED3636"/>
</svg>
