<svg width="56" height="56" viewBox="0 0 56 56" fill="none" xmlns="http://www.w3.org/2000/svg">
<path d="M49.4463 14.5919L44.4081 9.55375C43.6758 8.82147 42.4887 8.82147 41.7565 9.55375C41.0243 10.286 41.0242 11.4732 41.7565 12.2054L42.9498 13.3986L40.5027 15.8457C37.3173 13.1882 33.4441 11.584 29.3125 11.2106V7.75H31C32.0356 7.75 32.875 6.91056 32.875 5.875C32.875 4.83944 32.0356 4 31 4H23.875C22.8394 4 22 4.83944 22 5.875C22 6.91056 22.8394 7.75 23.875 7.75H25.5625V11.2106C15.2759 12.1402 7 20.7782 7 31.5625C7 42.8577 16.1407 52 27.4375 52C38.7327 52 47.875 42.8593 47.875 31.5625C47.875 26.7333 46.2104 22.1607 43.1543 18.4973L45.6014 16.0502L46.7946 17.2435C47.5268 17.9757 48.714 17.9758 49.4463 17.2435C50.1784 16.5113 50.1784 15.3242 49.4463 14.5919ZM27.4375 48.25C18.236 48.25 10.75 40.764 10.75 31.5625C10.75 22.361 18.236 14.875 27.4375 14.875C36.639 14.875 44.125 22.361 44.125 31.5625C44.125 40.764 36.6391 48.25 27.4375 48.25ZM37.1803 31.5625C37.1803 32.5981 36.3408 33.4375 35.3053 33.4375H27.4376C26.402 33.4375 25.5626 32.5981 25.5626 31.5625V20.5305C25.5626 19.4949 26.402 18.6555 27.4376 18.6555C28.4732 18.6555 29.3126 19.4949 29.3126 20.5305V29.6875H35.3053C36.3408 29.6875 37.1803 30.5269 37.1803 31.5625Z" fill="#ED3636"/>
</svg>
