<svg width="56" height="56" viewBox="0 0 56 56" fill="none" xmlns="http://www.w3.org/2000/svg">
<path d="M27.0774 24.6177C27.0774 24.1078 27.4907 23.6946 28.0005 23.6946C28.5103 23.6946 28.9236 24.1078 28.9236 24.6177V37.1144L30.6202 35.3706C37.6226 28.1739 37.5429 16.5424 30.4427 9.44214L28.0005 7L25.5584 9.44214C18.4581 16.5424 18.3785 28.1739 25.3808 35.3706L27.0774 37.1144V24.6177Z" fill="#ED3636"/>
<path d="M15.3473 41.0942C14.9868 40.7337 14.9868 40.1493 15.3473 39.7888C15.7078 39.4283 16.2922 39.4283 16.6527 39.7888L25.2308 48.3669V46.4415C25.2308 36.2618 16.949 27.98 6.76923 27.98H4V31.2107C4 41.3905 12.2818 49.6723 22.4615 49.6723H23.9253L15.3473 41.0942Z" fill="#ED3636"/>
<path d="M30.7695 46.4415V48.3669L39.3476 39.7887C39.7081 39.4283 40.2925 39.4283 40.653 39.7887C41.0135 40.1493 41.0135 40.7337 40.653 41.0942L32.075 49.6723H33.5388C43.7185 49.6723 52.0003 41.3905 52.0003 31.2107V27.98H49.2311C39.0513 27.98 30.7695 36.2618 30.7695 46.4415Z" fill="#ED3636"/>
</svg>
