<svg width="236" height="40" viewBox="0 0 236 40" fill="none" xmlns="http://www.w3.org/2000/svg">
<g clip-path="url(#clip0_70_292)">
<rect x="5" y="6" width="51" height="31" fill="white"/>
<path d="M0 0V40H59.7079V0H0ZM27.9376 32.4125L29.9609 29.0468H37.2566L31.6146 19.7278L31.031 20.7005L29.066 23.9495L25.9726 29.0467L23.9493 32.4125H8.07391L23.0933 7.5877L29.066 17.4513L31.6146 13.2297L43.2294 32.4125L27.9376 32.4125ZM51.634 21.6733H48.0737V25.2334H44.7274V21.6732H41.1671V18.3269H44.7274V14.7666H48.0737V18.3269H51.634L51.634 21.6733ZM14.0466 29.0468H22.0427L27.101 20.7005L23.0933 14.0856L14.0466 29.0468Z" fill="#ED3636"/>
<path d="M80.592 12.6438L78.691 17.1504L77.6093 19.724L75.7119 24.2318L74.3902 27.3646H69.5029L70.8211 24.2318L72.7185 19.724L75.0853 14.105L75.7012 12.6438H80.592Z" fill="white"/>
<path d="M96.7448 27.3646H91.8541L90.5347 24.2318L88.6385 19.724L87.552 17.1504L85.6558 12.6438H90.5465L92.4475 17.1504L93.5292 19.724L95.4255 24.2318L96.7448 27.3646Z" fill="white"/>
<path d="M92.4473 17.1504H75.0854V14.105L75.7014 12.6438H90.5463L92.4473 17.1504Z" fill="white"/>
<path d="M95.4254 24.2316H70.8213L72.7187 19.7239H93.5291L95.4254 24.2316Z" fill="white"/>
<path d="M187.634 12.6438L185.734 17.1504L184.652 19.724L182.755 24.2318L181.433 27.3646H176.546L177.864 24.2318L179.761 19.724L182.127 14.105L182.743 12.6438H187.634Z" fill="white"/>
<path d="M203.786 27.3646H198.895L197.577 24.2318L195.68 19.724L194.595 17.1504L192.698 12.6438H197.589L199.489 17.1504L200.571 19.724L202.468 24.2318L203.786 27.3646Z" fill="white"/>
<path d="M199.489 17.1504H182.127V14.105L182.743 12.6438H197.589L199.489 17.1504Z" fill="white"/>
<path d="M202.468 24.2316H177.864L179.762 19.7239H200.571L202.468 24.2316Z" fill="white"/>
<path d="M148.6 12.6431H144.092V27.3632H148.6V12.6431Z" fill="white"/>
<path d="M210.288 12.6431H205.78V27.3632H210.288V12.6431Z" fill="white"/>
<path d="M103.551 12.6431H99.0435V27.3632H103.551V12.6431Z" fill="white"/>
<path d="M116.49 22.8555H99.0435V27.363H116.49V22.8555Z" fill="white"/>
<path d="M156.718 12.6615V27.3646H152.21V12.6438H156.692L156.718 12.6615Z" fill="white"/>
<path d="M174.163 12.6438V27.3646H169.682L169.655 27.3457V12.6438H174.163Z" fill="white"/>
<path d="M174.162 25.0168V27.3646H169.682L169.655 27.3457L156.718 18.1836L152.21 14.9952V12.6438H156.692L156.718 12.6615L169.655 21.8236L174.162 25.0168Z" fill="white"/>
<path d="M123.947 12.9497H119.439V27.3633H123.947V12.9497Z" fill="white"/>
<path d="M137.217 12.6458H119.435V24.2218H137.217C138.192 24.2193 139.125 23.831 139.814 23.142C140.503 22.453 140.892 21.5192 140.894 20.5448V16.3424C140.896 15.3649 140.509 14.4268 139.82 13.7337C139.131 13.0407 138.195 12.6494 137.217 12.6458ZM136.4 19.7276H123.949V17.1595H136.4V19.7276Z" fill="white"/>
<path d="M218.497 12.95H213.989V27.3633H218.497V12.95Z" fill="white"/>
<path d="M231.75 12.6458H213.987V24.2218H231.75C232.327 24.2276 232.896 24.087 233.404 23.813C234.017 23.5151 234.533 23.0505 234.895 22.4725C235.256 21.8945 235.447 21.2264 235.446 20.5448V16.3424C235.447 15.8569 235.351 15.3761 235.165 14.9275C234.98 14.479 234.708 14.0714 234.364 13.7281C234.021 13.3847 233.613 13.1125 233.165 12.9267C232.716 12.741 232.235 12.6456 231.75 12.6458ZM218.501 17.1595H230.933V19.7276H218.501V17.1595Z" fill="white"/>
<path d="M231.688 20.8481L235.448 27.3621H230.241L227.781 23.1026L231.688 20.8481Z" fill="white"/>
</g>
<defs>
<clipPath id="clip0_70_292">
<rect width="235.448" height="40" fill="white"/>
</clipPath>
</defs>
</svg>
