<svg width="40" height="40" viewBox="0 0 40 40" fill="none" xmlns="http://www.w3.org/2000/svg">
<circle cx="20" cy="20" r="20" fill="#3B429F"/>
<path d="M19.75 11C16.0285 11 13 14.0495 13 17.7987C13 23.126 19.1155 28.6265 19.3758 28.8575C19.483 28.9527 19.6165 29 19.75 29C19.8835 29 20.017 28.9527 20.1242 28.8582C20.3845 28.6265 26.5 23.126 26.5 17.7987C26.5 14.0495 23.4715 11 19.75 11ZM19.75 21.5C17.6823 21.5 16 19.8177 16 17.75C16 15.6823 17.6823 14 19.75 14C21.8177 14 23.5 15.6823 23.5 17.75C23.5 19.8177 21.8177 21.5 19.75 21.5Z" fill="white"/>
</svg>
