<svg width="172" height="99" viewBox="0 0 172 99" fill="none" xmlns="http://www.w3.org/2000/svg">
<path d="M41.7334 98.5854C33.1467 98.5546 25.7296 96.5695 19.482 92.6302C13.2343 88.6908 8.41779 83.0125 5.03238 75.5954C1.64696 68.1782 -0.0303606 59.2838 0.000415898 48.9121C0.0311924 38.5096 1.7239 29.6768 5.07854 22.4135C8.46396 15.1503 13.2651 9.62589 19.482 5.84038C25.7296 2.05486 33.1467 0.162109 41.7334 0.162109C50.32 0.162109 57.7372 2.07025 63.9848 5.88654C70.2324 9.67205 75.049 15.1964 78.4344 22.4597C81.8198 29.7229 83.4971 38.5404 83.4663 48.9121C83.4663 59.3454 81.7736 68.2705 78.3882 75.6877C75.0028 83.1048 70.1863 88.7831 63.9386 92.7225C57.7218 96.6311 50.32 98.5854 41.7334 98.5854ZM41.7334 77.7189C46.1652 77.7189 49.7968 75.4107 52.6283 70.7942C55.4905 66.147 56.9062 58.8529 56.8754 48.9121C56.8754 42.4183 56.2291 37.1093 54.9365 32.9853C53.6439 28.8612 51.8588 25.8143 49.5814 23.8446C47.3039 21.8442 44.6879 20.8439 41.7334 20.8439C37.3016 20.8439 33.6853 23.0906 30.8846 27.584C28.084 32.0774 26.6529 39.1867 26.5913 48.9121C26.5605 55.5291 27.1915 60.9765 28.4841 65.2544C29.7767 69.5016 31.5617 72.6408 33.8392 74.6721C36.1474 76.7033 38.7788 77.7189 41.7334 77.7189Z" fill="#5158B3"/>
<path d="M132.447 97.2928C124.999 97.2928 118.382 96.0156 112.596 93.4611C106.841 90.8759 102.317 87.3212 99.0239 82.7971C95.7308 78.2729 94.0688 73.0717 94.0381 67.1934H119.89C119.921 69.0092 120.475 70.6403 121.552 72.0868C122.66 73.5025 124.168 74.6105 126.076 75.4107C127.985 76.2109 130.17 76.611 132.632 76.611C135.002 76.611 137.094 76.1955 138.91 75.3645C140.726 74.5028 142.142 73.3179 143.157 71.8098C144.173 70.3018 144.665 68.5783 144.635 66.6394C144.665 64.7312 144.081 63.0385 142.88 61.5613C141.711 60.084 140.064 58.9299 137.941 58.0989C135.817 57.2679 133.37 56.8525 130.601 56.8525H120.998V39.1252H130.601C133.155 39.1252 135.402 38.7097 137.341 37.8787C139.31 37.0478 140.834 35.8936 141.911 34.4164C143.019 32.9391 143.557 31.2464 143.527 29.3382C143.557 27.4917 143.111 25.8605 142.188 24.4448C141.265 23.0291 139.972 21.9211 138.31 21.1209C136.679 20.3207 134.786 19.9206 132.632 19.9206C130.293 19.9206 128.2 20.3361 126.353 21.1671C124.538 21.9981 123.106 23.1522 122.06 24.6294C121.014 26.1067 120.475 27.7994 120.444 29.7076H95.8847C95.9154 23.9216 97.5004 18.8127 100.64 14.3809C103.81 9.94904 108.149 6.47129 113.658 3.94762C119.167 1.42394 125.492 0.162109 132.632 0.162109C139.618 0.162109 145.789 1.34701 151.144 3.7168C156.53 6.08659 160.731 9.3489 163.747 13.5037C166.794 17.6278 168.302 22.352 168.271 27.6763C168.333 32.9699 166.517 37.3094 162.824 40.6948C159.161 44.0802 154.514 46.0807 148.882 46.6962V47.4348C156.514 48.2658 162.254 50.6048 166.101 54.4519C169.948 58.2682 171.841 63.0693 171.78 68.8553C171.81 74.3951 170.148 79.3039 166.794 83.5819C163.47 87.8598 158.838 91.2144 152.898 93.6458C146.989 96.0771 140.172 97.2928 132.447 97.2928Z" fill="#5158B3"/>
</svg>
