<svg width="169" height="99" viewBox="0 0 169 99" fill="none" xmlns="http://www.w3.org/2000/svg">
<path d="M41.9555 98.5854C33.3689 98.5546 25.9518 96.5695 19.7041 92.6302C13.4565 88.6908 8.63996 83.0125 5.25454 75.5954C1.86913 68.1782 0.191807 59.2838 0.222584 48.9121C0.25336 38.5096 1.94607 29.6768 5.30071 22.4135C8.68613 15.1503 13.4873 9.62589 19.7041 5.84038C25.9518 2.05486 33.3689 0.162109 41.9555 0.162109C50.5422 0.162109 57.9593 2.07025 64.207 5.88654C70.4546 9.67205 75.2711 15.1964 78.6565 22.4597C82.042 29.7229 83.7193 38.5404 83.6885 48.9121C83.6885 59.3454 81.9958 68.2705 78.6104 75.6877C75.225 83.1048 70.4084 88.7831 64.1608 92.7225C57.9439 96.6311 50.5422 98.5854 41.9555 98.5854ZM41.9555 77.7189C46.3874 77.7189 50.019 75.4107 52.8504 70.7942C55.7126 66.147 57.1284 58.8529 57.0976 48.9121C57.0976 42.4183 56.4513 37.1093 55.1587 32.9853C53.8661 28.8612 52.081 25.8143 49.8036 23.8446C47.5261 21.8442 44.9101 20.8439 41.9555 20.8439C37.5237 20.8439 33.9075 23.0906 31.1068 27.584C28.3062 32.0774 26.875 39.1867 26.8135 48.9121C26.7827 55.5291 27.4136 60.9765 28.7063 65.2544C29.9989 69.5016 31.7839 72.6408 34.0614 74.6721C36.3696 76.7033 39.001 77.7189 41.9555 77.7189Z" fill="#5158B3"/>
<path d="M95.7375 96.0002V77.5343L131.007 48.3581C133.346 46.4192 135.347 44.6034 137.009 42.9107C138.702 41.1872 139.994 39.4176 140.887 37.6017C141.81 35.7859 142.272 33.7701 142.272 31.5542C142.272 29.1228 141.748 27.0454 140.702 25.3219C139.686 23.5984 138.271 22.275 136.455 21.3517C134.639 20.3977 132.546 19.9206 130.176 19.9206C127.807 19.9206 125.714 20.3977 123.898 21.3517C122.113 22.3058 120.728 23.7061 119.743 25.5527C118.758 27.3993 118.266 29.646 118.266 32.2928H93.8909C93.8909 25.6451 95.3836 19.9206 98.3689 15.1195C101.354 10.3184 105.571 6.62518 111.018 4.03995C116.465 1.45472 122.852 0.162109 130.176 0.162109C137.747 0.162109 144.303 1.37778 149.843 3.80913C155.413 6.2097 159.706 9.59511 162.723 13.9654C165.769 18.3356 167.293 23.4599 167.293 29.3382C167.293 32.9699 166.539 36.5861 165.031 40.187C163.523 43.757 160.814 47.7118 156.906 52.0513C152.997 56.3908 147.442 61.5613 140.24 67.5627L131.377 74.949V75.503H168.309V96.0002H95.7375Z" fill="#5158B3"/>
</svg>
