<svg width="144" height="100" viewBox="0 0 144 100" fill="none" xmlns="http://www.w3.org/2000/svg">
<path d="M42.3032 100C33.5993 99.9687 26.0809 97.9518 19.7479 93.9493C13.415 89.9468 8.53272 84.1776 5.10108 76.6416C1.66945 69.1057 -0.0307751 60.0688 0.000421576 49.5309C0.0316183 38.9618 1.74744 29.9875 5.14788 22.6079C8.57952 15.2283 13.4462 9.61538 19.7479 5.76923C26.0809 1.92308 33.5993 0 42.3032 0C51.007 0 58.5254 1.93871 64.8584 5.81614C71.1913 9.66229 76.0736 15.2752 79.5052 22.6548C82.9369 30.0344 84.6371 38.9931 84.6059 49.5309C84.6059 60.1313 82.8901 69.1995 79.4584 76.7355C76.0268 84.2714 71.1445 90.0406 64.8116 94.0431C58.5098 98.0144 51.007 100 42.3032 100ZM42.3032 78.7992C46.7955 78.7992 50.4767 76.454 53.3468 71.7636C56.2481 67.0419 57.6831 59.631 57.6519 49.5309C57.6519 42.9331 56.9968 37.5391 55.6866 33.349C54.3763 29.1588 52.5669 26.0632 50.2583 24.0619C47.9498 22.0294 45.298 21.0131 42.3032 21.0131C37.8108 21.0131 34.1452 23.2958 31.3063 27.8612C28.4674 32.4265 27.0168 39.6498 26.9544 49.5309C26.9232 56.2539 27.5627 61.7886 28.873 66.1351C30.1832 70.4503 31.9927 73.6398 34.3012 75.7036C36.641 77.7673 39.3083 78.7992 42.3032 78.7992Z" fill="#F33C3C"/>
<path d="M143.802 1.31332V97.3734H117.784V25.3283H117.222L96.2579 37.8987V15.7598L119.843 1.31332H143.802Z" fill="#F33C3C"/>
</svg>
