<svg width="177" height="99" viewBox="0 0 177 99" fill="none" xmlns="http://www.w3.org/2000/svg">
<path d="M41.8374 98.5854C33.2507 98.5546 25.8336 96.5695 19.586 92.6302C13.3383 88.6908 8.5218 83.0125 5.13638 75.5954C1.75096 68.1782 0.0736433 59.2838 0.10442 48.9121C0.135196 38.5096 1.8279 29.6768 5.18254 22.4135C8.56796 15.1503 13.3691 9.62589 19.586 5.84038C25.8336 2.05486 33.2507 0.162109 41.8374 0.162109C50.424 0.162109 57.8412 2.07025 64.0888 5.88654C70.3364 9.67205 75.153 15.1964 78.5384 22.4597C81.9238 29.7229 83.6011 38.5404 83.5703 48.9121C83.5703 59.3454 81.8776 68.2705 78.4922 75.6877C75.1068 83.1048 70.2903 88.7831 64.0426 92.7225C57.8258 96.6311 50.424 98.5854 41.8374 98.5854ZM41.8374 77.7189C46.2692 77.7189 49.9008 75.4107 52.7323 70.7942C55.5945 66.147 57.0102 58.8529 56.9794 48.9121C56.9794 42.4183 56.3331 37.1093 55.0405 32.9853C53.7479 28.8612 51.9629 25.8143 49.6854 23.8446C47.4079 21.8442 44.7919 20.8439 41.8374 20.8439C37.4056 20.8439 33.7893 23.0906 30.9887 27.584C28.188 32.0774 26.7569 39.1867 26.6953 48.9121C26.6646 55.5291 27.2955 60.9765 28.5881 65.2544C29.8807 69.5016 31.6657 72.6408 33.9432 74.6721C36.2514 76.7033 38.8828 77.7189 41.8374 77.7189Z" fill="#5158B3"/>
<path d="M94.696 81.2275V61.2843L132.736 1.45472H150.832V28.0456H140.492L119.994 60.5456V61.2843H176.131V81.2275H94.696ZM140.676 96.0002V75.1337L141.23 66.4547V1.45472H165.236V96.0002H140.676Z" fill="#5158B3"/>
</svg>
