<svg width="40" height="40" viewBox="0 0 40 40" fill="none" xmlns="http://www.w3.org/2000/svg">
<circle cx="20" cy="20" r="20" fill="#3B429F"/>
<g clip-path="url(#clip0_70_768)">
<path fill-rule="evenodd" clip-rule="evenodd" d="M28.6713 26.8332C28.5518 26.9524 28.4076 27.1047 28.2548 27.2659C27.8734 27.6706 27.397 28.1738 27.0984 28.3778C25.5272 29.4514 23.4253 28.9377 21.9385 28.3182C19.9772 27.501 17.8418 25.9947 15.9245 24.0772C14.0054 22.1595 12.4993 20.0234 11.682 18.0632C11.0633 16.5761 10.5485 14.4738 11.6223 12.9023C11.8262 12.6035 12.3305 12.1278 12.7347 11.7457C12.8964 11.5933 13.0476 11.4493 13.1672 11.3302C13.3794 11.119 13.6666 11.0005 13.9659 11.0005C14.2653 11.0005 14.5525 11.119 14.7647 11.3302L17.6555 14.2202C17.8666 14.4324 17.985 14.7195 17.985 15.0188C17.985 15.318 17.8666 15.6051 17.6555 15.8174L16.868 16.6033C16.605 16.8643 16.4334 17.2034 16.3786 17.5699C16.3238 17.9364 16.3888 18.3108 16.5639 18.6373C17.6471 20.6817 19.3193 22.3536 21.3638 23.4364C21.6903 23.6115 22.0647 23.6764 22.4311 23.6216C22.7975 23.5667 23.1363 23.3949 23.3972 23.1319L24.1828 22.3459C24.395 22.1347 24.6822 22.0162 24.9815 22.0162C25.2809 22.0162 25.5681 22.1347 25.7803 22.3459L28.6713 25.2364C28.8824 25.4485 29.0008 25.7356 29.0008 26.0348C29.0008 26.334 28.8824 26.6211 28.6713 26.8332Z" fill="white"/>
</g>
<defs>
<clipPath id="clip0_70_768">
<rect width="18" height="18" fill="white" transform="translate(11 11)"/>
</clipPath>
</defs>
</svg>
