<svg width="32" height="32" viewBox="0 0 32 32" fill="none" xmlns="http://www.w3.org/2000/svg">
<path d="M16 32C7.16392 32 0 24.8368 0 16C0 7.16391 7.16323 0 16 0C24.8368 0 32 7.16322 32 16C32 24.8368 24.8368 32 16 32Z" fill="#ED3636"/>
<path fill-rule="evenodd" clip-rule="evenodd" d="M22.865 18.9552C22.4848 18.7693 20.6404 17.8643 20.2961 17.7424C19.9517 17.6129 19.7003 17.5558 19.449 17.929C19.1976 18.3016 18.4731 19.1418 18.2575 19.3856C18.0351 19.637 17.8202 19.6653 17.44 19.4786C17.0667 19.292 15.8539 18.9049 14.4194 17.6274C13.3071 16.6446 12.5468 15.4249 12.3312 15.0516C12.1163 14.6783 12.3099 14.4772 12.4965 14.2913C12.6687 14.1191 12.8698 13.8533 13.0633 13.6384C13.1136 13.5737 13.1563 13.5165 13.1997 13.4586C13.2857 13.3223 13.3505 13.1928 13.4366 13.0137C13.5661 12.7631 13.5013 12.5475 13.4083 12.3609C13.3147 12.1742 12.5612 10.3374 12.2458 9.59088C11.9373 8.84501 11.6218 8.9738 11.3994 8.9738C11.1838 8.9738 10.9331 8.93799 10.6818 8.93799C10.4304 8.93799 10.0213 9.03096 9.67693 9.40424C9.33258 9.77752 8.36426 10.6818 8.36426 12.5186C8.36426 12.949 8.44346 13.3794 8.55779 13.7885C8.93795 15.1012 9.75613 16.1845 9.90007 16.3719C10.086 16.6157 12.4972 20.5048 16.3147 22.0041C20.1391 23.4896 20.1391 22.9945 20.8278 22.9297C21.5165 22.8719 23.0523 22.033 23.3601 21.157C23.6762 20.2885 23.6762 19.5427 23.5826 19.385C23.4889 19.2355 23.2375 19.1418 22.865 18.9552Z" fill="white"/>
</svg>
