<svg width="56" height="56" viewBox="0 0 56 56" fill="none" xmlns="http://www.w3.org/2000/svg">
<path fill-rule="evenodd" clip-rule="evenodd" d="M22.9834 30.508C31.2901 30.508 38.0334 37.2513 38.0334 45.558C38.0334 37.2513 44.7767 30.508 53.0834 30.508C44.7767 30.508 38.0334 23.7647 38.0334 15.458C38.0334 23.7647 31.2901 30.508 22.9834 30.508Z" fill="#ED3636"/>
<path fill-rule="evenodd" clip-rule="evenodd" d="M2.9165 43.0499C8.4535 43.0499 12.9498 47.5463 12.9498 53.0833C12.9498 47.5463 17.4462 43.0499 22.9832 43.0499C17.4462 43.0499 12.9498 38.5536 12.9498 33.0166C12.9498 38.5536 8.4535 43.0499 2.9165 43.0499Z" fill="#ED3636"/>
<path fill-rule="evenodd" clip-rule="evenodd" d="M7.93311 12.9498C13.4701 12.9498 17.9664 17.4462 17.9664 22.9832C17.9664 17.4462 22.4628 12.9498 27.9998 12.9498C22.4628 12.9498 17.9664 8.4535 17.9664 2.9165C17.9664 8.4535 13.4701 12.9498 7.93311 12.9498Z" fill="#ED3636"/>
</svg>
