<svg width="40" height="40" viewBox="0 0 40 40" fill="none" xmlns="http://www.w3.org/2000/svg">
<circle cx="20" cy="20" r="20" fill="#3B429F"/>
<path d="M23.0738 18.1298C24.2672 17.0417 25.8811 15.5702 26.0282 12.0547H27.0938V11H13.3828V12.0547H14.4484C14.5955 15.5702 16.2093 17.0417 17.4028 18.1298C18.2033 18.8597 18.6562 19.3064 18.6562 20C18.6562 20.6936 18.2033 21.1403 17.4028 21.8702C16.2093 22.9583 14.5955 24.4298 14.4484 27.9453H13.3828V29H27.0938V27.9453H26.0282C25.8811 24.4298 24.2672 22.9583 23.0738 21.8702C22.2733 21.1403 21.8203 20.6936 21.8203 20C21.8203 19.3064 22.2733 18.8597 23.0738 18.1298ZM19.7109 23.9529C19.5481 23.9865 19.3871 24.0354 19.2301 24.1004L16.0001 25.437C16.5275 24.0958 17.3771 23.3208 18.1133 22.6496C18.9349 21.9005 19.7109 21.193 19.7109 20V23.9529ZM22.3632 22.6496C23.0994 23.3208 23.949 24.0958 24.4765 25.4369L21.2465 24.1003C21.0894 24.0354 20.9285 23.9865 20.7656 23.9529V20C20.7656 21.193 21.5416 21.9005 22.3632 22.6496ZM15.9815 14.5156C15.7265 13.8512 15.5504 13.049 15.5044 12.0547H24.9722C24.9261 13.049 24.75 13.8512 24.495 14.5156H15.9815Z" fill="white"/>
</svg>
